<svg xmlns="http://www.w3.org/2000/svg" width="25.816" height="21.842" viewBox="0 0 25.816 21.842">
  <g id="comment-white-oval-bubble" transform="translate(0.5 0.5)">
    <path id="Path_86" data-name="Path 86" d="M23.154,40.871a11.219,11.219,0,0,0-4.514-3.162,16.388,16.388,0,0,0-6.232-1.16,16.388,16.388,0,0,0-6.232,1.16,11.218,11.218,0,0,0-4.514,3.162A6.687,6.687,0,0,0,0,45.233a6.494,6.494,0,0,0,1.253,3.813,10.1,10.1,0,0,0,3.428,2.985,8.543,8.543,0,0,1-.36,1.031q-.208.488-.374.8a5.494,5.494,0,0,1-.45.692q-.284.38-.429.536l-.478.516q-.332.359-.429.468a.962.962,0,0,0-.111.122l-.1.115-.083.122c-.046.067-.067.111-.062.128a.354.354,0,0,1-.028.136.176.176,0,0,0,.007.163v.014a.689.689,0,0,0,.222.373.561.561,0,0,0,.374.142h.069a10.635,10.635,0,0,0,1.579-.3,15.239,15.239,0,0,0,6.37-3.284,19.318,19.318,0,0,0,2.008.109,16.383,16.383,0,0,0,6.232-1.16A11.219,11.219,0,0,0,23.154,49.6a6.557,6.557,0,0,0,0-8.725Z" transform="translate(0 -36.549)" fill="none" stroke="#999" stroke-width="1"/>
  </g>
</svg>
