<svg xmlns="http://www.w3.org/2000/svg" width="22.179" height="22.179" viewBox="0 0 22.179 22.179">
  <g id="settings" transform="translate(0.5 0.5)">
    <path id="Path_91" data-name="Path 91" d="M11.254,21.179H9.925a1.952,1.952,0,0,1-1.95-1.95v-.45a8.55,8.55,0,0,1-1.328-.551l-.319.319a1.95,1.95,0,0,1-2.758,0l-.939-.939a1.95,1.95,0,0,1,0-2.758l.318-.318A8.551,8.551,0,0,1,2.4,13.2H1.95A1.952,1.952,0,0,1,0,11.254V9.925a1.952,1.952,0,0,1,1.95-1.95H2.4A8.552,8.552,0,0,1,2.95,6.648l-.319-.319a1.95,1.95,0,0,1,0-2.758l.94-.939a1.949,1.949,0,0,1,2.758,0l.318.318A8.558,8.558,0,0,1,7.975,2.4V1.95A1.952,1.952,0,0,1,9.925,0h1.329A1.952,1.952,0,0,1,13.2,1.95V2.4a8.55,8.55,0,0,1,1.328.551l.319-.319a1.95,1.95,0,0,1,2.758,0l.939.939a1.95,1.95,0,0,1,0,2.758l-.318.318a8.551,8.551,0,0,1,.551,1.328h.45a1.952,1.952,0,0,1,1.95,1.95v1.329a1.952,1.952,0,0,1-1.95,1.95h-.45a8.552,8.552,0,0,1-.551,1.328l.319.319a1.95,1.95,0,0,1,0,2.758l-.94.939a1.949,1.949,0,0,1-2.758,0l-.318-.318a8.558,8.558,0,0,1-1.328.551v.45A1.952,1.952,0,0,1,11.254,21.179Z" fill="none" stroke="#303030" stroke-width="1"/>
    <path id="Path_92" data-name="Path 92" d="M149.955,155.311a5.362,5.362,0,0,1-5.355-5.355,5.421,5.421,0,0,1,5.355-5.355c-.183,0-.092,0,0,0a5.355,5.355,0,0,1,0,10.711Z" transform="translate(-139.366 -139.366)" fill="none" stroke="#303030" stroke-width="1"/>
  </g>
</svg>
