<svg id="Group_5" data-name="Group 5" xmlns="http://www.w3.org/2000/svg" width="24.209" height="24.208" viewBox="0 0 24.209 24.208">
  <path id="Path_73" data-name="Path 73" d="M5.365,146.36l-.843,3.146-3.08.065a12.125,12.125,0,0,1-.089-11.3h0l2.742.5L5.3,141.5a7.224,7.224,0,0,0,.068,4.864Z" transform="translate(0 -131.73)" fill="#fbbb00"/>
  <path id="Path_74" data-name="Path 74" d="M273.255,208.176a12.1,12.1,0,0,1-4.315,11.7h0l-3.454-.176L265,216.648a7.214,7.214,0,0,0,3.1-3.684h-6.472v-4.789h11.627Z" transform="translate(-249.258 -198.333)" fill="#518ef8"/>
  <path id="Path_75" data-name="Path 75" d="M48.748,316.322h0a12.108,12.108,0,0,1-18.24-3.7l3.923-3.211a7.2,7.2,0,0,0,10.374,3.686Z" transform="translate(-29.066 -294.779)" fill="#28b446"/>
  <path id="Path_76" data-name="Path 76" d="M47.1,2.787,43.18,6A7.2,7.2,0,0,0,32.568,9.766L28.625,6.538h0A12.107,12.107,0,0,1,47.1,2.787Z" transform="translate(-27.271)" fill="#f14336"/>
</svg>
