<svg id="Component_10_2" data-name="Component 10 – 2" xmlns="http://www.w3.org/2000/svg" width="21.302" height="27.633" viewBox="0 0 21.302 27.633">
  <g id="Path_81" data-name="Path 81" transform="translate(5.522 16.97)" fill="#fff">
    <path d="M 5 10.16351699829102 C 2.51869010925293 10.16351699829102 0.5 7.995996475219727 0.5 5.331756591796875 L 0.5 0.4999966025352478 L 9.5 0.4999966025352478 L 9.5 5.331756591796875 C 9.5 7.995996475219727 7.48130989074707 10.16351699829102 5 10.16351699829102 Z" stroke="none"/>
    <path d="M 1 0.9999961853027344 L 1 5.331756591796875 C 1 7.720296859741211 2.794390201568604 9.663516998291016 5 9.663516998291016 C 7.205610275268555 9.663516998291016 9 7.720296859741211 9 5.331756591796875 L 9 0.9999961853027344 L 1 0.9999961853027344 M 0 -3.814697265625e-06 L 10 -3.814697265625e-06 C 10 -3.814697265625e-06 10 3.57085657119751 10 5.331756591796875 C 10 8.276406288146973 7.761420249938965 10.66351699829102 5 10.66351699829102 C 2.238580226898193 10.66351699829102 0 8.276406288146973 0 5.331756591796875 C 0 4.569096565246582 0 -3.814697265625e-06 0 -3.814697265625e-06 Z" stroke="none" fill="#999"/>
  </g>
  <g id="Path_82" data-name="Path 82" transform="translate(6.482)" fill="#fff">
    <path d="M 7.567623615264893 8.102922439575195 L 0.500003457069397 8.102922439575195 L 0.500003457069397 4.301462173461914 C 0.500003457069397 2.205332279205322 2.08526349067688 0.5000021457672119 4.0338134765625 0.5000021457672119 C 5.982363700866699 0.5000021457672119 7.567623615264893 2.205332279205322 7.567623615264893 4.301462173461914 L 7.567623615264893 8.102922439575195 Z" stroke="none"/>
    <path d="M 7.067623615264893 7.602921962738037 L 7.067623615264893 4.301462173461914 C 7.067623615264893 2.481032133102417 5.706663608551025 1.000002145767212 4.0338134765625 1.000002145767212 C 2.360963582992554 1.000002145767212 1.000003457069397 2.481032133102417 1.000003457069397 4.301462173461914 L 1.000003457069397 7.602921962738037 L 7.067623615264893 7.602921962738037 M 8.067623138427734 8.602922439575195 L 3.476562596915755e-06 8.602922439575195 C 3.476562596915755e-06 8.602922439575195 3.476562596915755e-06 4.916752338409424 3.476562596915755e-06 4.301462173461914 C 3.476562596915755e-06 1.925832152366638 1.806003451347351 2.173462007704074e-06 4.0338134765625 2.173462007704074e-06 C 6.261623382568359 2.173462007704074e-06 8.067623138427734 1.925832152366638 8.067623138427734 4.301462173461914 C 8.067623138427734 5.722092151641846 8.067623138427734 8.602922439575195 8.067623138427734 8.602922439575195 Z" stroke="none" fill="#999"/>
  </g>
  <g id="Path_80" data-name="Path 80" transform="translate(0 5.603)" fill="#fff">
    <path d="M 10.65125465393066 16.69589805603027 C 7.90957498550415 16.69589805603027 5.361394882202148 16.37508773803711 3.476125001907349 15.79256725311279 C 2.364635229110718 15.44913768768311 0.5000051259994507 14.69377708435059 0.5000051259994507 13.49346733093262 C 0.5000051259994507 13.27147769927979 0.8007951378822327 12.76073741912842 1.042495131492615 12.35035705566406 C 1.397645115852356 11.74731731414795 1.800195097923279 11.06382751464844 1.876115083694458 10.4161376953125 C 2.137655019760132 8.165567398071289 2.573395013809204 5.607007503509521 3.822595119476318 3.690767288208008 C 5.222275257110596 1.543707370758057 7.434114933013916 0.4999973177909851 10.58451557159424 0.4999973177909851 C 13.53536510467529 0.4999973177909851 15.63991546630859 1.518267273902893 17.01843452453613 3.61299729347229 C 18.28410530090332 5.536247253417969 18.80315589904785 8.145947456359863 19.19031524658203 10.44109725952148 C 19.28849601745605 11.01882743835449 19.68669509887695 11.57201766967773 20.07178497314453 12.1069974899292 C 20.4310245513916 12.6060676574707 20.8024959564209 13.12212753295898 20.8024959564209 13.49346733093262 C 20.8024959564209 14.69377708435059 18.93786430358887 15.44913768768311 17.82637596130371 15.79256725311279 C 15.94110488891602 16.37508773803711 13.39292526245117 16.69589805603027 10.65125465393066 16.69589805603027 Z" stroke="none"/>
    <path d="M 10.58451557159424 0.9999980926513672 C 7.616415023803711 0.9999980926513672 5.54157543182373 1.969476699829102 4.241455078125 3.963827133178711 C 3.048845291137695 5.793247222900391 2.627605438232422 8.281046867370605 2.372714996337891 10.47435760498047 C 2.284515380859375 11.22673797607422 1.853555679321289 11.95848751068115 1.47331428527832 12.60409736633301 C 1.299394607543945 12.89942359924316 1.038654327392578 13.34213542938232 1.000364303588867 13.51474189758301 C 1.021991729736328 14.14157676696777 1.999176025390625 14.81289672851563 3.623714447021484 15.31485748291016 C 5.435834884643555 15.8747673034668 7.997275352478027 16.19589805603027 10.65123558044434 16.19589805603027 C 13.30520534515381 16.19589805603027 15.8666353225708 15.8747673034668 17.67875480651855 15.31485748291016 C 19.3216552734375 14.80722713470459 20.3024845123291 14.1263370513916 20.3024845123291 13.49346733093262 C 20.3024845123291 13.28336715698242 19.88842582702637 12.70813751220703 19.66597557067871 12.39909744262695 C 19.24759483337402 11.8178768157959 18.81497573852539 11.21685791015625 18.69727516174316 10.52426719665527 C 18.31858444213867 8.279327392578125 17.81304550170898 5.729987144470215 16.60076522827148 3.887857437133789 C 15.9935245513916 2.965137481689453 15.26149559020996 2.286367416381836 14.36283493041992 1.812788009643555 C 13.33943557739258 1.273456573486328 12.06822490692139 0.9999980926513672 10.58451557159424 0.9999980926513672 M 10.58451557159424 -1.9073486328125e-06 C 17.55171585083008 -1.9073486328125e-06 18.85528564453125 5.449047088623047 19.68334579467773 10.3579273223877 C 19.85217475891113 11.35136795043945 21.3024845123291 12.49627685546875 21.3024845123291 13.49346733093262 C 21.3024845123291 15.96175193786621 15.97686195373535 17.19589424133301 10.65124034881592 17.19589424133301 C 5.325617790222168 17.19589424133301 -5.7220458984375e-06 15.96175193786621 -5.7220458984375e-06 13.49346733093262 C -5.7220458984375e-06 12.75297737121582 1.256195068359375 11.40993690490723 1.379514694213867 10.3579273223877 C 1.925325393676758 5.661267280578613 3.163305282592773 -1.9073486328125e-06 10.58451557159424 -1.9073486328125e-06 Z" stroke="none" fill="#999"/>
  </g>
</svg>
