<svg xmlns="http://www.w3.org/2000/svg" width="22.309" height="23.591" viewBox="0 0 22.309 23.591">
  <g id="Group_53" data-name="Group 53" transform="translate(-327 -804)">
    <g id="Ellipse_41" data-name="Ellipse 41" transform="translate(331.722 804)" fill="none" stroke="#999" stroke-width="1">
      <ellipse cx="6.31" cy="6.73" rx="6.31" ry="6.73" stroke="none"/>
      <ellipse cx="6.31" cy="6.73" rx="5.81" ry="6.23" fill="none"/>
    </g>
    <g id="Path_124" data-name="Path 124" transform="translate(327 817.129)" fill="none">
      <path d="M11.155,0a10.942,10.942,0,0,1,11.13,9.761c.01.081.025.7.025.7H0s0-.012,0-.23c0-.006,0-.011,0-.284C.02,4.666,5.006,0,11.155,0Z" stroke="none"/>
      <path d="M 11.15458297729492 1.000003814697266 C 8.45615291595459 1.000003814697266 5.898042678833008 1.971084594726563 3.951482772827148 3.734364032745361 C 2.22032356262207 5.302525997161865 1.171567916870117 7.366760730743408 1.025054931640625 9.462684631347656 L 21.2443675994873 9.462684631347656 C 20.59249687194824 4.610856533050537 16.32477569580078 1.000003814697266 11.15458297729492 1.000003814697266 M 11.15458297729492 3.814697265625e-06 C 16.982421875 3.814697265625e-06 21.76640319824219 4.19206428527832 22.28444290161133 9.760563850402832 C 22.29460334777832 9.841814041137695 22.30916213989258 10.46268463134766 22.30916213989258 10.46268463134766 L 3.814697265625e-06 10.46268463134766 C 3.814697265625e-06 10.46268463134766 3.814697265625e-06 10.45113468170166 0.00263214111328125 10.23309421539307 C 0.002643585205078125 10.22753429412842 0.002653121948242188 10.22197437286377 0.007352828979492188 9.949014663696289 C 0.0199737548828125 4.665594100952148 5.006393432617188 3.814697265625e-06 11.15458297729492 3.814697265625e-06 Z" stroke="none" fill="#999"/>
    </g>
  </g>
</svg>
