<svg xmlns="http://www.w3.org/2000/svg" width="22.312" height="21.539" viewBox="0 0 22.312 21.539">
  <path id="star" d="M4.763,21.006a1.124,1.124,0,0,1-.662-.217,1.142,1.142,0,0,1-.44-1.175L5.03,13.548.388,9.453a1.14,1.14,0,0,1,.641-1.991L7.171,6.9,9.6,1.184a1.128,1.128,0,0,1,2.08,0L14.108,6.9l6.141.561a1.14,1.14,0,0,1,.643,1.991L16.25,13.547l1.369,6.066a1.141,1.141,0,0,1-.44,1.175,1.123,1.123,0,0,1-1.243.054l-5.3-3.184-5.3,3.186a1.128,1.128,0,0,1-.58.162ZM7.124,7.011v0Zm7.029,0v0Zm0,0" transform="translate(0.516 0.008)" fill="none" stroke="#303030" stroke-width="1"/>
</svg>