<svg xmlns="http://www.w3.org/2000/svg" width="22.836" height="22.044" viewBox="0 0 22.836 22.044">
  <g id="star" transform="translate(0.517 0.5)">
    <path id="star-2" data-name="star" d="M4.88,21.51a1.151,1.151,0,0,1-.678-.222,1.17,1.17,0,0,1-.451-1.2l1.4-6.215L.4,9.673a1.168,1.168,0,0,1,.657-2.04l6.294-.575L9.836,1.2a1.156,1.156,0,0,1,2.131,0l2.488,5.859,6.293.575a1.168,1.168,0,0,1,.659,2.04l-4.757,4.2,1.4,6.215a1.169,1.169,0,0,1-.45,1.2,1.151,1.151,0,0,1-1.274.056L10.9,18.081,5.474,21.345a1.156,1.156,0,0,1-.594.165ZM7.3,7.172a0,0,0,0,1,0,0Zm7.2,0v0S14.5,7.17,14.5,7.169Zm0,0" transform="translate(-0.001 -0.492)" fill="#ffc400" stroke="#444" stroke-width="1"/>
  </g>
</svg>
