<svg xmlns="http://www.w3.org/2000/svg" width="153" height="199.831" viewBox="0 0 153 199.831">
  <g id="logo" transform="translate(-130 -68.169)">
    <g id="Camada_2" data-name="Camada 2" transform="translate(144.252 68.169)">
      <g id="Camada_1" data-name="Camada 1">
        <path id="Path_1" data-name="Path 1" d="M122.586,114.865c0-12.558-10.382-22.981-23.863-24.736A22.639,22.639,0,0,0,79.742,79.443a21.679,21.679,0,0,0-7.175,1.213c-.481-.4-.979-.809-1.484-1.213l.283.214v-7.24a73.326,73.326,0,0,0,11.248.878,57.073,57.073,0,0,0,14.767-1.82A34.332,34.332,0,0,0,111.634,64c14.3-12.943,7.794-33.109,7.507-33.974L117.7,25.659l-4.4-.582c-2.184-.291-21.727-2.665-34.019,5.618A31.727,31.727,0,0,0,68.729,43.471C67.423,34.33,63.843,21.436,54.144,13,40.446,1.1,16.1.182,15.066.154L10.366,0,8.437,4.489c-.4.918-9.468,22.609,5.719,39.681C28.542,60.349,55.05,61.328,61.323,61.328h1.31l.675-.024v13.99a.7.7,0,0,1,.21.077,27.815,27.815,0,0,0-9.44-1.642A29.045,29.045,0,0,0,28.368,89.906h-.461C12.538,89.906,0,101.118,0,114.9c0,.348,0,.7.028,1.084S0,116.71,0,117.078c0,12.708,9.84,23.054,21.946,23.054h78.7c12.1,0,21.942-10.334,21.942-23.054,0-.36,0-.732-.028-1.128S122.586,115.213,122.586,114.865ZM71.366,58.949C72.482,52.478,75.411,42.209,83.144,37c10.447-7.042,29.238-4.477,29.238-4.477s5.347,16.033-5.42,25.78C95.767,68.438,75.293,65.477,71.37,64.8Zm-8.938-5.027s-29.06.987-43.111-14.795C7.147,25.44,14.868,7.543,14.868,7.543s22.8.732,34.807,11.155C63.188,30.443,62.428,53.922,62.428,53.922Zm52.118,63.156c0,8.065-6.225,14.6-13.9,14.6h-78.7a13.529,13.529,0,0,1-9.812-4.271,14.912,14.912,0,0,1-4.073-10.322,8.685,8.685,0,0,1,.049-1.137c-.032-.36-.049-.716-.049-1.076,0-9.145,8.9-16.554,19.859-16.554A23.491,23.491,0,0,1,33.582,99c2.374-9.707,10.67-16.846,20.538-16.846a20.8,20.8,0,0,1,16.833,8.813,14.233,14.233,0,0,1,8.813-3.078A14.934,14.934,0,0,1,93.745,98.335c.315,0,.643-.02.967-.02,10.973,0,19.859,7.41,19.859,16.554a8.7,8.7,0,0,1-.044,1.076A9.714,9.714,0,0,0,114.546,117.078Z" fill="#111"/>
        <path id="Path_2" data-name="Path 2" d="M37.653,50.234C25.483,36.547,33.2,18.65,33.2,18.65S56,19.382,68.012,29.8C81.541,41.534,80.78,65.029,80.78,65.029S51.7,66.016,37.653,50.234Z" transform="translate(-18.336 -11.107)" fill="#00e520"/>
        <path id="Path_3" data-name="Path 3" d="M176.45,112.021v-5.848c1.116-6.471,4.045-16.74,11.778-21.946,10.447-7.042,29.238-4.477,29.238-4.477s5.347,16.033-5.42,25.78C200.851,115.661,180.377,112.7,176.45,112.021Z" transform="translate(-105.084 -47.223)" fill="#00e520"/>
        <path id="Path_4" data-name="Path 4" d="M126.37,236.908c.028.376.044.752.044,1.137,0,8.065-6.225,14.6-13.9,14.6h-78.7A13.529,13.529,0,0,1,24,248.37a14.912,14.912,0,0,1-4.073-10.322,8.686,8.686,0,0,1,.049-1.137c-.032-.36-.049-.716-.049-1.076,0-9.145,8.9-16.554,19.859-16.554a23.49,23.49,0,0,1,5.662.684c2.374-9.707,10.67-16.846,20.538-16.846a20.8,20.8,0,0,1,16.833,8.813,14.233,14.233,0,0,1,8.813-3.078A14.934,14.934,0,0,1,105.614,219.3c.315,0,.643-.02.967-.02,10.973,0,19.859,7.41,19.859,16.554C126.415,236.192,126.4,236.548,126.37,236.908Z" transform="translate(-11.869 -120.967)" fill="#00c3ff"/>
      </g>
    </g>
    <text id="farmLink" transform="translate(130 254)" fill="#121212" font-size="39" font-family="Nunito-Regular, Nunito"><tspan x="0" y="0">farmLink</tspan></text>
  </g>
</svg>
