<svg xmlns="http://www.w3.org/2000/svg" width="256.084" height="69" viewBox="0 0 256.084 69">
  <g id="logo" transform="translate(-76.916 -59)">
    <g id="Camada_2" data-name="Camada 2" transform="translate(76.916 61.585)">
      <g id="Camada_1" data-name="Camada 1" transform="translate(0 0)">
        <path id="Path_1" data-name="Path 1" d="M46.138,43.232c0-4.727-3.908-8.649-8.981-9.31A8.521,8.521,0,0,0,30.012,29.9a8.159,8.159,0,0,0-2.7.457c-.181-.152-.368-.3-.559-.457l.107.081V27.256a27.6,27.6,0,0,0,4.233.33,21.48,21.48,0,0,0,5.558-.685,12.922,12.922,0,0,0,5.364-2.815C47.4,19.215,44.949,11.625,44.841,11.3L44.3,9.657l-1.655-.219c-.822-.11-8.177-1-12.8,2.114a11.941,11.941,0,0,0-3.972,4.809c-.492-3.44-1.839-8.293-5.489-11.469C15.222.416,6.059.069,5.67.058L3.9,0,3.175,1.69C3.026,2.035-.388,10.2,5.328,16.624c5.415,6.089,15.391,6.457,17.752,6.457h.493l.254-.009v5.265a.262.262,0,0,1,.079.029,10.469,10.469,0,0,0-3.553-.618,10.932,10.932,0,0,0-9.677,6.089H10.5c-5.785,0-10.5,4.22-10.5,9.407,0,.131,0,.265.011.408S0,43.926,0,44.064a8.485,8.485,0,0,0,8.26,8.677h29.62a8.482,8.482,0,0,0,8.258-8.677c0-.135,0-.276-.011-.425S46.138,43.362,46.138,43.232ZM26.86,22.187c.42-2.436,1.522-6.3,4.433-8.26,3.932-2.65,11-1.685,11-1.685s2.012,6.034-2.04,9.7c-4.214,3.813-11.919,2.7-13.4,2.443ZM23.5,20.294s-10.937.371-16.226-5.568C2.69,9.575,5.6,2.839,5.6,2.839s8.581.276,13.1,4.2C23.782,11.458,23.5,20.294,23.5,20.294Zm19.616,23.77a5.367,5.367,0,0,1-5.232,5.494H8.26A5.092,5.092,0,0,1,4.567,47.95a5.612,5.612,0,0,1-1.533-3.885,3.269,3.269,0,0,1,.018-.428c-.012-.135-.018-.269-.018-.4C3.034,39.791,6.383,37,10.508,37a8.841,8.841,0,0,1,2.131.257,8.086,8.086,0,0,1,7.73-6.34A7.829,7.829,0,0,1,26.7,34.237a5.357,5.357,0,0,1,3.317-1.158,5.621,5.621,0,0,1,5.261,3.932c.119,0,.242-.008.364-.008,4.13,0,7.474,2.789,7.474,6.231a3.276,3.276,0,0,1-.017.4A3.656,3.656,0,0,0,43.111,44.064Z" fill="#111"/>
        <path id="Path_2" data-name="Path 2" d="M33.373,30.537C28.792,25.386,31.7,18.65,31.7,18.65s8.581.276,13.1,4.2C49.891,27.263,49.6,36.106,49.6,36.106S38.661,36.477,33.373,30.537Z" transform="translate(-26.103 -15.811)" fill="#00e520"/>
        <path id="Path_3" data-name="Path 3" d="M176.45,91.611v-2.2c.42-2.436,1.522-6.3,4.433-8.26,3.932-2.65,11-1.685,11-1.685s2.012,6.034-2.04,9.7C185.634,92.981,177.928,91.867,176.45,91.611Z" transform="translate(-149.59 -67.224)" fill="#00e520"/>
        <path id="Path_4" data-name="Path 4" d="M59.99,215.837c.011.142.017.283.017.428a5.367,5.367,0,0,1-5.232,5.494H25.155a5.092,5.092,0,0,1-3.693-1.607,5.613,5.613,0,0,1-1.533-3.885,3.268,3.268,0,0,1,.018-.428c-.012-.135-.018-.269-.018-.4,0-3.442,3.349-6.231,7.474-6.231a8.841,8.841,0,0,1,2.131.257,8.086,8.086,0,0,1,7.73-6.34,7.829,7.829,0,0,1,6.336,3.317,5.356,5.356,0,0,1,3.317-1.158,5.621,5.621,0,0,1,5.261,3.932c.119,0,.242-.008.364-.008,4.13,0,7.474,2.789,7.474,6.231C60.007,215.567,60,215.7,59.99,215.837Z" transform="translate(-16.896 -172.2)" fill="#00c3ff"/>
      </g>
    </g>
    <text id="farmLink" transform="translate(137 110)" fill="#121212" font-size="50" font-family="Nunito-Regular, Nunito"><tspan x="0" y="0">farmLink</tspan></text>
  </g>
</svg>
