<svg xmlns="http://www.w3.org/2000/svg" width="143.331" height="131.742" viewBox="0 0 143.331 131.742">
  <path id="Path_131" data-name="Path 131" d="M101.384,56.694,97.11,33.9h6.759V27.135H95.842L94.573,20.37H68.091v6.764h7.194l5.842,42.843h-19.1l-6.5-14.68A10.144,10.144,0,0,0,50.85,36.155H42.919V0H0V42.919H11.313V56.448H22.986a23.6,23.6,0,0,0-7.125,16.911v3.382h7.1a16.913,16.913,0,0,0,33.142,0H81.96a16.912,16.912,0,1,0,19.424-20.048ZM6.764,36.155V6.764h29.39v29.39ZM18.077,49.684V42.919H50.849a3.383,3.383,0,0,1,0,6.765Zm21.46,6.764h9.111l5.987,13.529H22.965A16.939,16.939,0,0,1,39.537,56.448Zm0,27.058a10.163,10.163,0,0,1-9.566-6.765H49.1a10.163,10.163,0,0,1-9.566,6.765ZM88.96,27.135l5.586,29.792a16.9,16.9,0,0,0-7.784,4.306l-4.65-34.1H88.96Zm9.572,56.372a10.147,10.147,0,1,1,10.147-10.147A10.158,10.158,0,0,1,98.531,83.507Z" transform="matrix(0.899, -0.438, 0.438, 0.899, 0, 50.607)" fill="#00a417"/>
</svg>
