<svg xmlns="http://www.w3.org/2000/svg" width="149.333" height="39" viewBox="0 0 149.333 39">
  <g id="logo" transform="translate(-76.916 -58.787)">
    <g id="Camada_2" data-name="Camada 2" transform="translate(76.916 60.52)">
      <g id="Camada_1" data-name="Camada 1" transform="translate(0 0)">
        <path id="Path_1" data-name="Path 1" d="M27.13,25.421a5.775,5.775,0,0,0-5.281-5.474,5.01,5.01,0,0,0-4.2-2.365,4.8,4.8,0,0,0-1.588.269c-.107-.09-.217-.179-.329-.269l.063.047v-1.6a16.228,16.228,0,0,0,2.489.194,12.631,12.631,0,0,0,3.268-.4,7.6,7.6,0,0,0,3.154-1.655c3.165-2.864,1.725-7.327,1.661-7.519l-.32-.966-.973-.129c-.483-.064-4.808-.59-7.529,1.243A7.021,7.021,0,0,0,15.21,9.621a10.975,10.975,0,0,0-3.228-6.744C8.951.244,3.563.04,3.334.034L2.294,0,1.867.994c-.088.2-2.1,5,1.266,8.782,3.184,3.58,9.05,3.8,10.439,3.8h.29l.149-.005v3.1a.154.154,0,0,1,.047.017,6.156,6.156,0,0,0-2.089-.363,6.428,6.428,0,0,0-5.69,3.58h-.1C2.775,19.9,0,22.378,0,25.429c0,.077,0,.156.006.24S0,25.829,0,25.911a4.99,4.99,0,0,0,4.857,5.1H22.274a4.988,4.988,0,0,0,4.856-5.1c0-.08,0-.162-.006-.25S27.13,25.5,27.13,25.421ZM15.794,13.046c.247-1.432.9-3.7,2.607-4.857,2.312-1.558,6.471-.991,6.471-.991s1.183,3.548-1.2,5.705c-2.478,2.242-7.009,1.587-7.877,1.437Zm-1.978-1.113s-6.431.218-9.541-3.274C1.582,5.63,3.29,1.669,3.29,1.669s5.046.162,7.7,2.469C13.984,6.737,13.816,11.934,13.816,11.934ZM25.35,25.911a3.156,3.156,0,0,1-3.076,3.23H4.857A2.994,2.994,0,0,1,2.685,28.2a3.3,3.3,0,0,1-.9-2.284,1.922,1.922,0,0,1,.011-.252c-.007-.08-.011-.158-.011-.238,0-2.024,1.969-3.664,4.395-3.664a5.2,5.2,0,0,1,1.253.151,4.755,4.755,0,0,1,4.545-3.728,4.6,4.6,0,0,1,3.725,1.95,3.15,3.15,0,0,1,1.95-.681,3.305,3.305,0,0,1,3.093,2.312c.07,0,.142,0,.214,0,2.428,0,4.395,1.64,4.395,3.664a1.926,1.926,0,0,1-.01.238A2.15,2.15,0,0,0,25.35,25.911Z" fill="#121212"/>
        <path id="Path_2" data-name="Path 2" d="M32.308,25.64c-2.693-3.029-.985-6.99-.985-6.99s5.046.162,7.7,2.469c2.994,2.6,2.826,7.8,2.826,7.8S35.418,29.133,32.308,25.64Z" transform="translate(-28.033 -16.981)" fill="#00e520"/>
        <path id="Path_3" data-name="Path 3" d="M176.45,86.537V85.243c.247-1.432.9-3.7,2.607-4.857,2.312-1.558,6.471-.991,6.471-.991s1.183,3.548-1.2,5.705C181.85,87.343,177.319,86.687,176.45,86.537Z" transform="translate(-160.656 -72.196)" fill="#00e520"/>
        <path id="Path_4" data-name="Path 4" d="M43.486,210.6c.006.083.01.166.01.252a3.156,3.156,0,0,1-3.076,3.23H23a2.994,2.994,0,0,1-2.172-.945,3.3,3.3,0,0,1-.9-2.284,1.921,1.921,0,0,1,.011-.252c-.007-.08-.011-.158-.011-.238,0-2.024,1.969-3.664,4.395-3.664a5.2,5.2,0,0,1,1.253.151,4.755,4.755,0,0,1,4.545-3.728,4.6,4.6,0,0,1,3.725,1.95,3.15,3.15,0,0,1,1.95-.681,3.305,3.305,0,0,1,3.093,2.312c.07,0,.142,0,.214,0,2.428,0,4.395,1.64,4.395,3.664C43.5,210.439,43.492,210.518,43.486,210.6Z" transform="translate(-18.146 -184.939)" fill="#00c3ff"/>
      </g>
    </g>
    <text id="farmLink" transform="translate(112.249 87.787)" fill="#121212" font-size="29" font-family="Nunito-Regular, Nunito"><tspan x="0" y="0">farmLink</tspan></text>
  </g>
</svg>
